<mxfile host="app.diagrams.net" modified="2023-02-02T12:50:25.385Z" agent="5.0 (Macintosh)" etag="BDoUVaWexPq7GKlOYxIa" version="20.8.13" type="github">
  <diagram name="Страница 1" id="-Euu3AYn-DWkhzbp66z2">
    <mxGraphModel dx="1427" dy="710" grid="1" gridSize="10" guides="1" tooltips="1" connect="1" arrows="1" fold="1" page="1" pageScale="1" pageWidth="827" pageHeight="1169" math="0" shadow="0">
      <root>
        <mxCell id="0" />
        <mxCell id="1" parent="0" />
        <mxCell id="E84VCC7oeiF6VRQKwxnK-5" value="" style="endArrow=none;html=1;rounded=0;strokeWidth=5;fontFamily=Times New Roman;fontSize=14;" edge="1" parent="1">
          <mxGeometry width="50" height="50" relative="1" as="geometry">
            <mxPoint x="80" y="400" as="sourcePoint" />
            <mxPoint x="80" y="80" as="targetPoint" />
          </mxGeometry>
        </mxCell>
        <mxCell id="E84VCC7oeiF6VRQKwxnK-6" value="" style="endArrow=none;html=1;rounded=0;strokeWidth=5;fontFamily=Times New Roman;fontSize=14;" edge="1" parent="1">
          <mxGeometry width="50" height="50" relative="1" as="geometry">
            <mxPoint x="440" y="400" as="sourcePoint" />
            <mxPoint x="440" y="80" as="targetPoint" />
          </mxGeometry>
        </mxCell>
        <mxCell id="E84VCC7oeiF6VRQKwxnK-7" value="" style="endArrow=none;html=1;rounded=0;strokeWidth=5;fontFamily=Times New Roman;fontSize=14;" edge="1" parent="1">
          <mxGeometry width="50" height="50" relative="1" as="geometry">
            <mxPoint x="760" y="400" as="sourcePoint" />
            <mxPoint x="760" y="80" as="targetPoint" />
          </mxGeometry>
        </mxCell>
        <mxCell id="E84VCC7oeiF6VRQKwxnK-8" value="submit_sm" style="endArrow=classic;html=1;rounded=0;strokeWidth=1;fontFamily=Times New Roman;fontSize=14;" edge="1" parent="1">
          <mxGeometry width="50" height="50" relative="1" as="geometry">
            <mxPoint x="80" y="120" as="sourcePoint" />
            <mxPoint x="440" y="120" as="targetPoint" />
          </mxGeometry>
        </mxCell>
        <mxCell id="E84VCC7oeiF6VRQKwxnK-9" value="ESME" style="rounded=0;whiteSpace=wrap;html=1;fontFamily=Times New Roman;fontSize=14;" vertex="1" parent="1">
          <mxGeometry x="40" y="40" width="80" height="40" as="geometry" />
        </mxCell>
        <mxCell id="E84VCC7oeiF6VRQKwxnK-10" value="Application" style="rounded=0;whiteSpace=wrap;html=1;fontFamily=Times New Roman;fontSize=14;" vertex="1" parent="1">
          <mxGeometry x="40" y="400" width="80" height="40" as="geometry" />
        </mxCell>
        <mxCell id="E84VCC7oeiF6VRQKwxnK-11" value="MS" style="rounded=0;whiteSpace=wrap;html=1;fontFamily=Times New Roman;fontSize=14;" vertex="1" parent="1">
          <mxGeometry x="400" y="40" width="80" height="40" as="geometry" />
        </mxCell>
        <mxCell id="E84VCC7oeiF6VRQKwxnK-12" value="&lt;div style=&quot;font-size: 14px;&quot;&gt;SMSC&lt;/div&gt;" style="rounded=0;whiteSpace=wrap;html=1;fontFamily=Times New Roman;fontSize=14;" vertex="1" parent="1">
          <mxGeometry x="400" y="400" width="80" height="40" as="geometry" />
        </mxCell>
        <mxCell id="E84VCC7oeiF6VRQKwxnK-13" value="Mobile" style="rounded=0;whiteSpace=wrap;html=1;fontFamily=Times New Roman;fontSize=14;" vertex="1" parent="1">
          <mxGeometry x="720" y="400" width="80" height="40" as="geometry" />
        </mxCell>
        <mxCell id="E84VCC7oeiF6VRQKwxnK-14" value="MS" style="rounded=0;whiteSpace=wrap;html=1;fontFamily=Times New Roman;fontSize=14;" vertex="1" parent="1">
          <mxGeometry x="720" y="40" width="80" height="40" as="geometry" />
        </mxCell>
        <mxCell id="E84VCC7oeiF6VRQKwxnK-15" value="submit_sm_resp" style="endArrow=classic;html=1;rounded=0;strokeWidth=1;fontFamily=Times New Roman;fontSize=14;" edge="1" parent="1">
          <mxGeometry x="-0.0556" width="50" height="50" relative="1" as="geometry">
            <mxPoint x="440" y="160" as="sourcePoint" />
            <mxPoint x="80" y="160" as="targetPoint" />
            <mxPoint as="offset" />
          </mxGeometry>
        </mxCell>
        <mxCell id="E84VCC7oeiF6VRQKwxnK-16" value="deliver_sm" style="endArrow=classic;html=1;rounded=0;strokeWidth=1;fontFamily=Times New Roman;fontSize=14;" edge="1" parent="1">
          <mxGeometry x="-0.0556" width="50" height="50" relative="1" as="geometry">
            <mxPoint x="440" y="240" as="sourcePoint" />
            <mxPoint x="80" y="240" as="targetPoint" />
            <mxPoint as="offset" />
          </mxGeometry>
        </mxCell>
        <mxCell id="E84VCC7oeiF6VRQKwxnK-18" value="deliver_sm_resp" style="endArrow=classic;html=1;rounded=0;strokeWidth=1;fontFamily=Times New Roman;fontSize=14;" edge="1" parent="1">
          <mxGeometry width="50" height="50" relative="1" as="geometry">
            <mxPoint x="80" y="280" as="sourcePoint" />
            <mxPoint x="440" y="280" as="targetPoint" />
          </mxGeometry>
        </mxCell>
        <mxCell id="E84VCC7oeiF6VRQKwxnK-19" value="SRIfSM" style="endArrow=classic;html=1;rounded=0;strokeWidth=1;fontSize=14;fontFamily=Times New Roman;" edge="1" parent="1">
          <mxGeometry width="50" height="50" relative="1" as="geometry">
            <mxPoint x="440" y="170" as="sourcePoint" />
            <mxPoint x="540" y="170" as="targetPoint" />
          </mxGeometry>
        </mxCell>
        <mxCell id="E84VCC7oeiF6VRQKwxnK-20" value="" style="endArrow=none;html=1;rounded=0;strokeWidth=2;fontSize=14;fontFamily=Times New Roman;" edge="1" parent="1">
          <mxGeometry width="50" height="50" relative="1" as="geometry">
            <mxPoint x="539.5" y="360" as="sourcePoint" />
            <mxPoint x="539.5" y="120" as="targetPoint" />
          </mxGeometry>
        </mxCell>
        <mxCell id="E84VCC7oeiF6VRQKwxnK-21" value="HLR" style="rounded=0;whiteSpace=wrap;html=1;fontFamily=Times New Roman;fontSize=14;" vertex="1" parent="1">
          <mxGeometry x="500" y="80" width="80" height="40" as="geometry" />
        </mxCell>
        <mxCell id="E84VCC7oeiF6VRQKwxnK-22" value="" style="endArrow=classic;html=1;rounded=0;strokeWidth=1;fontSize=14;fontFamily=Times New Roman;" edge="1" parent="1">
          <mxGeometry width="50" height="50" relative="1" as="geometry">
            <mxPoint x="540" y="190" as="sourcePoint" />
            <mxPoint x="440" y="190" as="targetPoint" />
          </mxGeometry>
        </mxCell>
        <mxCell id="E84VCC7oeiF6VRQKwxnK-23" value="&lt;div style=&quot;font-size: 14px;&quot;&gt;FSM&lt;/div&gt;" style="endArrow=classic;html=1;rounded=0;strokeWidth=1;fontSize=14;fontFamily=Times New Roman;" edge="1" parent="1">
          <mxGeometry x="0.4" width="50" height="50" relative="1" as="geometry">
            <mxPoint x="440" y="200" as="sourcePoint" />
            <mxPoint x="640" y="200" as="targetPoint" />
            <mxPoint as="offset" />
          </mxGeometry>
        </mxCell>
        <mxCell id="E84VCC7oeiF6VRQKwxnK-24" value="" style="endArrow=none;html=1;rounded=0;strokeWidth=2;fontSize=14;fontFamily=Times New Roman;" edge="1" parent="1">
          <mxGeometry width="50" height="50" relative="1" as="geometry">
            <mxPoint x="640" y="360" as="sourcePoint" />
            <mxPoint x="640" y="120" as="targetPoint" />
          </mxGeometry>
        </mxCell>
        <mxCell id="E84VCC7oeiF6VRQKwxnK-25" value="MSC" style="rounded=0;whiteSpace=wrap;html=1;fontFamily=Times New Roman;fontSize=14;" vertex="1" parent="1">
          <mxGeometry x="600" y="80" width="80" height="40" as="geometry" />
        </mxCell>
        <mxCell id="E84VCC7oeiF6VRQKwxnK-26" value="" style="endArrow=classic;html=1;rounded=0;strokeWidth=1;fontSize=14;fontFamily=Times New Roman;" edge="1" parent="1">
          <mxGeometry width="50" height="50" relative="1" as="geometry">
            <mxPoint x="640" y="200" as="sourcePoint" />
            <mxPoint x="760" y="200" as="targetPoint" />
          </mxGeometry>
        </mxCell>
        <mxCell id="E84VCC7oeiF6VRQKwxnK-27" value="" style="endArrow=classic;html=1;rounded=0;strokeWidth=1;fontSize=14;fontFamily=Times New Roman;" edge="1" parent="1">
          <mxGeometry width="50" height="50" relative="1" as="geometry">
            <mxPoint x="760" y="240" as="sourcePoint" />
            <mxPoint x="440" y="240" as="targetPoint" />
          </mxGeometry>
        </mxCell>
      </root>
    </mxGraphModel>
  </diagram>
</mxfile>
